<mxfile host="app.diagrams.net" modified="2023-10-01T02:57:30.454Z" agent="Mozilla/5.0 (Windows NT 10.0; Win64; x64) AppleWebKit/537.36 (KHTML, like Gecko) Chrome/117.0.0.0 Safari/537.36" version="22.0.0" etag="rUL6IYmstUnNNviyjGcq" type="github">
  <diagram name="第 1 页" id="_mRlFo7Ib0KWRPptcxMv">
    <mxGraphModel>
      <root>
        <mxCell id="0" />
        <mxCell id="1" parent="0" />
      </root>
    </mxGraphModel>
  </diagram>
</mxfile>
